<svg width="25" height="20" viewBox="0 0 25 20" fill="none" xmlns="http://www.w3.org/2000/svg">
<path d="M24.839 9.65598L15.0556 0.156378C15.0062 0.106903 14.947 0.0675678 14.8817 0.0407047C14.8163 0.0138435 14.7461 0 14.6751 0C14.6041 0 14.5339 0.0138435 14.4685 0.0407047C14.4032 0.0675678 14.344 0.106903 14.2946 0.156378C14.2437 0.204346 14.2032 0.261765 14.1755 0.325226C14.1478 0.388685 14.1336 0.456896 14.1336 0.525806C14.1336 0.594719 14.1478 0.662928 14.1755 0.726389C14.2032 0.789848 14.2437 0.847267 14.2946 0.895237L23.1404 9.49766H0.543522C0.399371 9.49766 0.261124 9.55326 0.159194 9.65223C0.0572639 9.75121 0 9.88544 0 10.0254C0 10.1654 0.0572639 10.2996 0.159194 10.3986C0.261124 10.4976 0.399371 10.5532 0.543522 10.5532H23.1404L14.2946 19.1556C14.2161 19.2572 14.178 19.3829 14.1873 19.5097C14.1966 19.6364 14.2526 19.7556 14.3451 19.8454C14.4376 19.9353 14.5604 19.9897 14.6909 19.9987C14.8214 20.0077 14.9509 19.9707 15.0556 19.8944L24.839 10.3948C24.8899 10.3469 24.9304 10.2895 24.9581 10.226C24.9857 10.1625 25 10.0943 25 10.0254C25 9.9565 24.9857 9.88829 24.9581 9.82483C24.9304 9.76137 24.8899 9.70395 24.839 9.65598Z" fill="black"/>
</svg>
